<?xml version="1.0" standalone="no"?>
<!DOCTYPE svg PUBLIC "-//W3C//DTD SVG 20010904//EN"
 "http://www.w3.org/TR/2001/REC-SVG-20010904/DTD/svg10.dtd">
<svg version="1.0" xmlns="http://www.w3.org/2000/svg"
 width="1200.000000pt" height="1200.000000pt" viewBox="0 0 1200.000000 1200.000000"
 preserveAspectRatio="xMidYMid meet">
<metadata>
Created by potrace 1.14, written by Peter Selinger 2001-2017
</metadata>
<g transform="translate(0.000000,1200.000000) scale(0.100000,-0.100000)"
fill="#000000" stroke="none">
<path d="M856 9843 c-1 -2 -22 -5 -47 -8 -108 -13 -239 -77 -319 -156 -49 -47
-90 -97 -90 -108 0 -5 -7 -14 -15 -21 -8 -7 -12 -16 -9 -21 3 -5 0 -9 -5 -9
-6 0 -11 -5 -11 -11 0 -6 -6 -25 -14 -42 -41 -95 -40 8 -41 -2967 -1 -2753 -1
-2847 18 -2915 20 -78 49 -142 86 -195 23 -32 120 -131 153 -155 32 -24 133
-69 183 -81 6 -2 21 -6 35 -10 14 -4 2365 -8 5225 -9 4200 -1 5213 1 5268 11
133 25 271 111 352 219 39 53 100 165 89 165 -4 0 -1 6 5 13 6 8 12 28 14 45
2 18 7 35 10 39 4 3 7 1295 7 2870 0 2158 -3 2863 -12 2863 -6 0 -9 3 -6 6 8
7 -9 68 -35 124 -87 189 -266 323 -464 346 -45 5 -10372 12 -10377 7z m168
-404 c-4 -8 -1 -8 12 -1 12 6 1212 10 3414 10 3616 0 3441 2 3536 -46 48 -24
132 -105 157 -149 54 -98 50 38 52 -1948 2 -1164 -1 -1848 -7 -1880 -15 -74
-52 -146 -99 -191 -62 -59 -79 -74 -83 -74 -2 0 -25 -10 -52 -22 -27 -11 -69
-23 -94 -26 -61 -6 -6820 -5 -6845 2 -11 2 -20 5 -20 6 0 1 -7 3 -15 5 -36 7
-111 49 -147 83 -59 55 -89 102 -113 172 -20 60 -21 83 -23 531 -1 258 2 469
6 469 5 0 5 4 2 10 -9 15 -11 230 -2 230 5 0 5 4 2 10 -9 15 -11 230 -2 230 5
0 5 4 2 10 -9 15 -11 230 -2 230 5 0 5 4 2 10 -9 15 -11 230 -2 230 5 0 5 4 2
10 -9 15 -11 870 -2 870 5 0 5 4 2 10 -9 15 -11 230 -2 230 5 0 5 4 2 10 -9
15 -11 230 -2 230 5 0 5 5 2 10 -10 16 -11 150 -2 150 5 0 5 5 1 11 -6 11 -6
212 1 248 18 93 63 170 138 236 28 24 63 47 79 50 15 4 28 11 28 17 0 6 3 9 6
5 3 -3 20 1 37 8 39 17 40 17 31 4z m7961 -189 l0 -195 -197 -1 -196 0 0 190
c0 105 1 193 4 197 2 4 91 7 197 6 l192 -2 0 -195z m788 186 c2 -6 3 -94 3
-196 l-1 -185 -197 -1 -196 0 -1 189 c0 105 2 193 4 197 8 13 383 9 388 -4z
m788 5 c4 -21 3 -381 -1 -382 -3 -1 -92 -3 -197 -4 l-193 -2 0 198 0 197 195
0 c107 0 196 -3 196 -7z m794 -176 c0 -99 -1 -187 -3 -196 -3 -14 -28 -16
-195 -15 l-191 1 -6 31 c-4 17 -5 39 -4 49 3 21 6 118 4 125 -5 18 -4 123 2
126 4 3 5 11 1 19 -15 40 -2 43 198 41 l193 -1 1 -180z m-2369 -805 l0 -196
-195 1 -196 0 -2 196 -1 197 196 -2 197 -1 1 -195z m789 0 l0 -195 -195 0
-195 0 -2 185 c-1 102 0 190 2 196 2 9 60 11 197 10 l193 -1 0 -195z m775 194
c13 -3 15 -33 15 -197 l0 -193 -195 1 -195 0 -3 196 -2 197 182 0 c101 0 190
-2 198 -4z m801 -13 c3 -43 4 -357 2 -366 -3 -11 -376 -15 -387 -5 -4 5 -10
136 -6 153 2 9 2 114 0 125 -4 19 -1 92 4 101 3 5 88 9 196 9 169 0 190 -2
191 -17z m-2365 -968 l-1 -198 -185 -1 c-102 0 -190 1 -197 4 -8 2 -11 59 -11
198 l0 194 197 0 197 0 0 -197z m789 0 l0 -198 -196 0 -197 0 0 197 -1 198
197 0 197 0 0 -197z m790 -3 l0 -195 -185 -1 c-102 0 -191 2 -197 4 -10 3 -13
51 -13 191 0 103 3 191 7 195 4 3 92 5 197 4 l191 -3 0 -195z m790 15 c0 -99
-1 -187 -3 -195 -3 -14 -30 -16 -192 -15 -103 0 -191 2 -194 5 -5 5 -10 126
-6 143 2 9 2 114 0 125 -4 19 0 103 5 112 4 7 76 9 198 8 l191 -3 1 -180z
m-2588 -604 c12 4 25 4 28 0 3 -5 20 -6 38 -2 18 5 41 5 52 1 11 -4 28 -4 38
-1 11 4 40 4 67 1 26 -3 56 -3 66 1 11 3 29 3 42 -2 12 -5 22 -5 22 0 0 4 19
5 43 2 23 -4 56 -4 72 -1 17 3 49 3 72 -1 23 -3 44 -3 45 0 2 4 40 4 86 1 46
-3 91 -2 100 1 9 4 27 3 38 -2 12 -4 37 -4 55 0 19 4 43 5 54 1 11 -4 30 -4
42 1 12 5 25 4 28 0 3 -5 20 -6 38 -2 18 5 41 5 52 1 11 -4 28 -4 38 -1 11 4
40 4 67 1 26 -3 56 -3 66 1 11 3 29 3 42 -2 12 -5 22 -5 22 0 0 4 19 5 43 2
23 -4 56 -4 72 -1 17 3 49 3 72 -1 23 -3 44 -3 45 0 2 4 40 4 86 1 46 -3 91
-2 100 1 9 4 27 3 38 -2 12 -4 37 -4 55 0 19 4 43 5 54 1 11 -4 30 -4 42 1 12
5 25 4 28 0 3 -5 20 -6 38 -2 18 5 41 5 52 1 11 -4 28 -4 38 -1 11 4 40 4 67
1 26 -3 56 -3 66 1 11 3 29 3 42 -2 14 -5 22 -5 22 2 0 6 4 7 10 4 8 -5 67 -7
130 -4 8 1 29 1 45 0 17 0 50 0 74 0 23 0 46 -2 49 -6 11 -10 8 -385 -3 -388
-5 -1 -626 -3 -1380 -2 l-1370 0 -2 197 -2 197 27 -3 c15 -1 41 1 57 4 17 4
39 3 50 0 11 -4 30 -4 42 1z m482 -995 c23 -2 69 -17 103 -34 181 -85 267
-289 203 -482 -9 -27 -21 -52 -26 -56 -5 -3 -7 -9 -5 -13 14 -22 -172 -179
-195 -165 -5 3 -9 1 -9 -4 0 -10 -69 -24 -130 -27 -93 -4 -221 47 -281 112
-88 96 -119 175 -115 289 4 94 6 105 41 175 31 62 106 136 168 167 55 28 176
55 199 45 3 -2 25 -5 47 -7z m1582 0 c98 -10 221 -98 278 -200 82 -146 53
-343 -68 -464 -214 -213 -571 -120 -658 171 -42 141 10 312 124 406 51 42 131
80 184 87 24 4 46 8 47 9 2 2 15 1 28 -1 13 -2 43 -6 65 -8z m-9461 -1580 c43
-6 113 -38 155 -70 48 -37 56 -46 99 -111 29 -44 38 -64 53 -125 5 -20 5 -141
0 -160 -2 -8 -8 -28 -12 -45 -14 -53 -76 -139 -129 -181 -70 -56 -147 -85
-236 -88 -42 -2 -143 19 -173 36 -12 7 -25 12 -29 13 -4 0 -33 23 -65 51 -57
50 -108 127 -117 175 -3 13 -5 24 -6 24 -2 0 -8 39 -13 82 -2 15 2 56 10 90
45 217 233 342 463 309z m2288 -386 l0 -395 -581 1 c-320 1 -587 2 -592 3 -12
1 -15 773 -4 781 4 3 270 5 592 5 l585 0 0 -395z m1967 388 c8 -8 9 -767 0
-776 -7 -8 -1175 -10 -1175 -2 -4 38 -1 770 3 776 6 10 1162 12 1172 2z m1970
3 c12 -1 15 -773 4 -781 -4 -3 -270 -5 -591 -5 l-583 1 -2 394 -2 395 582 -1
c320 -1 587 -2 592 -3z m1695 -12 c64 -19 118 -51 167 -98 163 -157 158 -420
-11 -573 -37 -35 -108 -76 -138 -82 -7 -2 -26 -6 -41 -11 -81 -22 -194 -5
-277 42 -73 42 -163 147 -176 206 -1 4 -2 8 -4 10 -13 16 -19 191 -8 233 25
88 112 199 188 238 91 48 212 62 300 35z m1591 -4 c96 -28 193 -111 234 -200
110 -239 -24 -511 -275 -562 -30 -6 -126 -5 -160 1 -102 20 -228 117 -268 207
-36 82 -41 104 -40 179 3 272 247 452 509 375z"/>
<path d="M1119 9052 l-26 -3 1 -189 c1 -103 4 -191 8 -195 3 -4 82 -8 175 -10
92 -2 179 -6 193 -9 14 -4 39 -9 55 -12 17 -2 48 -10 70 -16 22 -6 42 -12 45
-12 3 -1 10 -4 15 -7 6 -4 28 -12 50 -19 38 -12 174 -78 185 -90 3 -3 32 -23
65 -44 33 -22 139 -117 235 -212 170 -167 258 -244 279 -244 6 0 11 -3 11 -8
0 -4 19 -16 43 -26 195 -87 380 -102 567 -47 151 44 224 95 435 302 94 93 188
182 210 199 22 17 47 37 56 44 9 8 26 17 38 21 12 3 21 10 21 14 0 11 182 95
260 119 165 52 387 62 575 27 78 -15 205 -61 291 -105 123 -65 201 -127 384
-308 96 -95 205 -193 241 -217 70 -47 196 -102 250 -109 19 -3 52 -8 74 -12
87 -15 177 -9 319 22 46 10 152 60 213 101 32 21 127 107 212 192 86 84 183
176 216 202 33 27 68 55 77 64 10 8 20 15 23 15 2 0 26 13 52 28 100 58 249
114 343 128 19 3 42 7 50 10 8 3 93 8 189 10 96 2 177 8 180 13 8 13 5 370 -3
378 -6 7 -6622 11 -6677 5z"/>
<path d="M1101 8260 c-4 -3 -7 -448 -7 -988 l0 -984 145 5 c167 6 217 11 236
27 11 9 14 179 13 961 l0 950 -22 9 c-51 19 -343 35 -365 20z"/>
<path d="M7523 8257 c-75 -9 -113 -22 -114 -39 -6 -120 1 -1892 7 -1898 15
-15 74 -22 230 -27 142 -5 151 -4 155 13 2 11 4 455 4 989 l-1 969 -110 1
c-60 0 -137 -3 -171 -8z"/>
<path d="M4370 8248 c-30 -4 -66 -9 -80 -12 -14 -2 -28 -5 -32 -5 -12 -1 -10
-1899 2 -1906 41 -25 353 -25 379 0 3 4 6 432 7 952 l0 945 -25 10 c-24 10
-61 14 -156 21 -22 1 -65 -1 -95 -5z"/>
<path d="M1886 7971 c-7 -12 -3 -1391 4 -1391 4 0 23 17 42 38 103 112 300
282 327 282 5 0 11 6 13 13 5 10 4 712 0 729 -1 3 -21 18 -44 32 -60 35 -106
75 -230 197 -60 59 -110 104 -112 100z"/>
<path d="M5038 7930 c-2 -30 -1 -86 2 -123 3 -38 4 -70 1 -72 -2 -2 -3 -35 -2
-72 1 -37 1 -99 0 -138 -1 -82 -1 -77 1 -180 1 -44 1 -84 0 -90 -1 -5 -1 -39
-1 -75 1 -36 1 -96 0 -135 -1 -83 -1 -84 1 -160 0 -33 0 -106 0 -162 -1 -56 1
-107 4 -112 3 -5 1 -11 -6 -13 -9 -3 -9 -6 0 -12 7 -4 54 35 127 106 125 123
133 130 215 186 l55 38 0 350 c1 192 -1 356 -3 364 -2 8 -29 32 -60 52 -32 21
-73 52 -92 69 -69 60 -190 182 -190 190 0 5 -5 9 -11 9 -7 0 -18 8 -25 18 -11
15 -13 10 -16 -38z"/>
<path d="M6895 7868 c-60 -61 -139 -131 -174 -157 -34 -25 -72 -53 -83 -61
-18 -15 -19 -30 -19 -373 -1 -356 2 -387 33 -387 9 0 57 -34 113 -80 16 -14
75 -69 130 -123 55 -54 104 -102 110 -107 7 -6 10 216 10 696 0 387 -2 704 -5
703 -3 0 -54 -50 -115 -111z"/>
<path d="M3745 7876 c-100 -102 -179 -170 -242 -209 l-41 -26 -1 -363 -1 -363
43 -27 c67 -43 83 -56 214 -183 69 -66 128 -120 131 -120 4 0 7 312 7 693 1
470 -3 692 -10 691 -5 0 -50 -42 -100 -93z"/>
<path d="M2676 7482 c-3 -5 -5 -101 -5 -214 l0 -205 42 5 c53 7 247 8 307 2
l45 -5 1 212 1 212 -61 -6 c-78 -6 -229 -6 -283 1 -23 3 -44 2 -47 -2z"/>
<path d="M5830 7276 l0 -214 43 6 c53 8 262 8 303 0 17 -3 35 -3 40 1 6 3 10
99 9 214 l0 207 -55 -6 c-70 -8 -219 -8 -287 0 l-53 6 0 -214z"/>
<path d="M2778 6675 c-2 -2 -19 -5 -38 -8 -19 -3 -48 -8 -63 -12 -35 -7 -180
-64 -187 -73 -3 -4 -17 -14 -31 -22 -52 -29 -82 -56 -238 -210 -86 -85 -183
-177 -216 -203 -33 -26 -65 -51 -71 -56 -42 -34 -230 -123 -296 -140 -4 -1
-22 -7 -40 -12 -94 -28 -198 -41 -368 -44 -69 -2 -128 -3 -131 -4 -3 -1 -5
-88 -6 -195 l0 -194 3354 -1 c2574 0 3353 3 3354 12 4 45 3 370 -1 376 -3 4
-57 7 -120 7 -114 1 -247 9 -285 18 -119 29 -152 39 -211 63 -176 70 -265 135
-482 348 -101 99 -205 195 -230 213 -83 60 -204 110 -312 129 -48 9 -193 9
-261 1 -67 -9 -212 -60 -251 -88 -15 -11 -30 -20 -34 -20 -16 0 -102 -77 -249
-223 -88 -88 -185 -178 -215 -201 -69 -52 -154 -106 -166 -106 -6 0 -15 -5
-22 -12 -6 -6 -17 -13 -24 -14 -7 -1 -39 -14 -71 -28 -31 -14 -59 -26 -62 -26
-3 0 -30 -7 -61 -16 -59 -17 -66 -18 -179 -30 -96 -11 -221 -7 -315 9 -44 8
-124 27 -140 34 -8 3 -17 7 -20 8 -97 25 -274 120 -369 199 -13 12 -105 100
-204 197 -98 97 -191 183 -205 190 -15 8 -29 17 -32 20 -22 25 -160 81 -245
99 -51 11 -249 22 -257 15z"/>
<path d="M1291 2606 c1 -72 5 -140 9 -151 4 -11 13 -38 20 -59 7 -22 17 -44
22 -50 5 -6 19 -25 31 -43 41 -57 116 -110 189 -134 69 -22 74 -22 711 -22
353 1 656 4 672 7 17 4 35 8 40 9 38 9 117 59 161 101 90 87 120 178 119 366
l0 105 -988 1 -988 2 2 -132z"/>
<path d="M8790 2611 c2 -136 13 -201 42 -243 10 -14 18 -31 18 -37 0 -20 105
-116 150 -138 97 -47 91 -46 765 -46 352 1 656 3 675 6 127 19 259 134 301
262 19 58 19 59 22 193 2 103 0 123 -13 126 -8 3 -453 5 -988 4 l-973 -1 1
-126z"/>
</g>
</svg>
