<?xml version="1.0" encoding="UTF-8"?>
<svg width="450pt" height="300pt" version="1.1" viewBox="150 267 450 225" xmlns="http://www.w3.org/2000/svg">
 <g fill="#fff">
  <path d="m479.6 509.2c0 8.1758 6.6211 14.801 14.801 14.801h44.398c8.1758 0 14.801-6.6211 14.801-14.801v-7.3984h-74z"/>
  <path d="m198.41 509.2c0 8.1758 6.6211 14.801 14.801 14.801h44.398c8.1758 0 14.801-6.6211 14.801-14.801v-7.3984h-74z"/>
  <path d="m309.4 295.92v71.355c4.8477 1.2422 9.9531 1.2422 14.801 0v-71.363c-4.8477-1.2344-9.9531-1.2344-14.801 0.007813z"/>
  <path d="m250.21 323.54v16.141c2.4258-0.41406 4.8906-0.66406 7.3984-0.66406 2.5078 0 4.9727 0.25 7.3984 0.66406l0.003906-16.141c-2.4297 0.41406-4.8945 0.66406-7.4023 0.66406-2.5078 0-4.9727-0.25-7.3984-0.66406z"/>
  <path d="m279.8 345.2c2.9766 1.7969 5.7773 3.9219 8.2969 6.4375l6.5039 6.5039v-53.07l-6.5039 6.5039c-2.5234 2.5234-5.3203 4.6484-8.2969 6.4375z"/>
  <path d="m220.61 305.07v53.07l6.5039-6.5039c2.5234-2.5234 5.3203-4.6484 8.2969-6.4375v-27.188c-2.9766-1.7969-5.7773-3.9219-8.2969-6.4375z"/>
  <path d="m205.81 367.51v-71.801c-2.3984-0.65234-4.8555-1.1016-7.3984-1.1016h-7.4023v73.996h7.3984c2.5469 0 5.0039-0.45312 7.4023-1.0938z"/>
  <path d="m398.2 345.2c2.9766 1.7969 5.7773 3.9219 8.2969 6.4375l6.5039 6.5039v-53.07l-6.5039 6.5039c-2.5234 2.5234-5.3203 4.6484-8.2969 6.4375z"/>
  <path d="m339 305.07v53.07l6.5039-6.5039c2.5234-2.5234 5.3203-4.6484 8.2969-6.4375v-27.188c-2.9766-1.7969-5.7773-3.9219-8.2969-6.4375z"/>
  <path d="m228.9 292.44 8.6719 8.6719c10.699 10.699 29.363 10.699 40.062 0l8.6719-8.6719c8.1406-8.1484 18.973-12.633 30.496-12.633 11.52 0 22.355 4.4844 30.496 12.633l8.6719 8.6719c10.699 10.699 29.363 10.699 40.062 0l8.6719-8.6719c8.1367-8.1484 18.969-12.633 30.492-12.633h7.3984v-14.801l-251.59 0.003906v14.801h7.3984c11.523-0.003906 22.355 4.4805 30.496 12.629z"/>
  <path d="m427.8 295.7v71.801c2.3945 0.64844 4.8516 1.1016 7.3984 1.1016h7.4062l-0.007813-73.996h-7.3984c-2.5469 0-5.0039 0.44922-7.3984 1.0938z"/>
  <path d="m435.2 383.4c-11.52 0-22.355-4.4844-30.496-12.633l-8.6719-8.6719c-10.699-10.699-29.363-10.699-40.062 0l-8.6719 8.6719c-8.1367 8.1484-18.973 12.633-30.492 12.633-11.52 0-22.355-4.4844-30.496-12.633l-8.6719-8.6719c-10.699-10.699-29.363-10.699-40.062 0l-8.6719 8.6719c-8.1406 8.1484-18.973 12.633-30.492 12.633h-7.4023v14.801h251.6v-14.801z"/>
  <path d="m368.6 323.54v16.141c2.4258-0.41406 4.8906-0.66406 7.3984-0.66406s4.9727 0.25 7.3984 0.66406l0.003906-16.141c-2.4297 0.41406-4.8906 0.66406-7.4023 0.66406-2.5078 0-4.9727-0.25-7.3984-0.66406z"/>
  <path d="m568.39 235.41h-384.79c-12.238 0-22.199 9.9609-22.199 22.199v207.19c0 12.238 9.9609 22.199 22.199 22.199h384.79c12.238 0 22.199-9.9609 22.199-22.199v-207.19c0-12.238-9.9609-22.199-22.199-22.199zm-37 14.801h14.801v14.801h-14.801zm0 29.598h14.801v14.801h-14.801zm0 29.598h14.801v14.801h-14.801zm-29.598-59.195h14.801v14.801h-14.801zm0 29.598h14.801v14.801h-14.801zm0 29.598h14.801v14.801h-14.801zm-29.598-59.195h14.801v14.801h-14.801zm0 29.598h14.801v14.801h-14.801zm0 29.598h14.801v14.801h-14.801zm-273.79 155.39c-8.1758 0-14.801-6.6211-14.801-14.801 0-8.1758 6.6211-14.801 14.801-14.801 8.1758 0 14.801 6.6211 14.801 14.801-0.003907 8.1797-6.625 14.801-14.801 14.801zm88.793 0h-44.398v-29.598h44.398zm74 0h-44.398v-29.598h44.398zm73.996 0h-44.398v-29.598h44.398zm22.199-66.598c0 8.1602-6.6367 14.801-14.801 14.801h-251.59c-8.1602 0-14.801-6.6367-14.801-14.801l0.003907-133.19c0-8.1602 6.6367-14.801 14.801-14.801h251.59c8.1602 0 14.801 6.6367 14.801 14.801zm37 66.598c-8.1758 0-14.801-6.6211-14.801-14.801 0-8.1758 6.6211-14.801 14.801-14.801 8.1758 0 14.801 6.6211 14.801 14.801-0.003907 8.1797-6.625 14.801-14.801 14.801zm0-59.195c-8.1758 0-14.801-6.6211-14.801-14.801 0-8.1758 6.6211-14.801 14.801-14.801 8.1758 0 14.801 6.6211 14.801 14.801-0.003907 8.1758-6.625 14.801-14.801 14.801zm59.195 59.195c-8.1758 0-14.801-6.6211-14.801-14.801 0-8.1758 6.6211-14.801 14.801-14.801 8.1758 0 14.801 6.6211 14.801 14.801 0 8.1797-6.625 14.801-14.801 14.801zm0-59.195c-8.1758 0-14.801-6.6211-14.801-14.801 0-8.1758 6.6211-14.801 14.801-14.801 8.1758 0 14.801 6.6211 14.801 14.801 0 8.1758-6.625 14.801-14.801 14.801zm22.199-51.801h-103.59v-14.801h103.6zm0-29.598h-14.801v-14.801h14.801zm0-29.598h-14.801v-14.801h14.801zm0-29.598h-14.801v-14.801h14.801z"/>
 </g>
</svg>
